Crispy-Regular.ufo
<glyph name="exclam" format="2">
  <advance width="369"/>
  <unicode hex="0021"/>
  <outline>
    <contour>
      <point x="75" y="202" type="line" identifier="1m237t4hyw"/>
      <point x="267" y="202" type="line" identifier="S4rO5KuHiL"/>
      <point x="289" y="259" type="line"/>
      <point x="289" y="1600" type="line" identifier="zfocDyDTCM"/>
      <point x="97" y="1600" type="line" identifier="v7N4yg5XNk"/>
      <point x="75" y="1550" type="line"/>
    </contour>
    <component base="period" xOffset="31"/>
  </outline>
</glyph>
<glyph name="comma" format="2">
  <advance width="464"/>
  <unicode hex="002C"/>
  <outline>
    <contour>
      <point x="301" y="-269" type="line"/>
      <point x="381" y="0" type="line"/>
      <point x="381" y="139" type="line"/>
      <point x="204" y="139" type="line"/>
      <point x="175" y="98" type="line"/>
      <point x="175" y="0" type="line"/>
      <point x="277" y="0" type="line"/>
      <point x="277" y="-269" type="line"/>
    </contour>
  </outline>
</glyph>
<glyph name="period" format="2">
  <advance width="412"/>
  <unicode hex="002E"/>
  <outline>
    <contour>
      <point x="265" y="0" type="line" identifier="1m237t4hyw"/>
      <point x="291" y="35" type="line" identifier="v7N4yg5XNk"/>
      <point x="291" y="154" type="line"/>
      <point x="99" y="154" type="line" identifier="zfocDyDTCM"/>
      <point x="74" y="118" type="line"/>
      <point x="74" y="0" type="line" identifier="S4rO5KuHiL"/>
    </contour>
  </outline>
</glyph>
<glyph name="two" format="2">
  <advance width="1694"/>
  <unicode hex="0032"/>
  <outline>
    <contour>
      <point x="115" y="0" type="line"/>
      <point x="1579" y="0" type="line" identifier="pzdvPTirLJ"/>
      <point x="1579" y="426" type="line"/>
      <point x="1372" y="426" type="line"/>
      <point x="1372" y="135" type="line"/>
      <point x="324" y="135" type="line"/>
      <point x="324" y="726" type="line"/>
      <point x="1573" y="726" type="line" identifier="yyb1NCCI5w"/>
      <point x="1573" y="1600" type="line" identifier="5FogYRSgkk"/>
      <point x="119" y="1600" type="line" identifier="svlFvrau4c"/>
      <point x="119" y="1109" type="line" identifier="LQ9fBsTy9K"/>
      <point x="325" y="1109" type="line"/>
      <point x="325" y="1465" type="line"/>
      <point x="1367" y="1465" type="line"/>
      <point x="1367" y="849" type="line"/>
      <point x="115" y="849" type="line" identifier="teVKnpBcVb"/>
    </contour>
  </outline>
</glyph>
<glyph name="three" format="2">
  <advance width="1648"/>
  <unicode hex="0033"/>
  <outline>
    <contour>
      <point x="70" y="0" type="line" identifier="O9abUc1nmN"/>
      <point x="1569" y="0" type="line" identifier="kMJYMTfXCq"/>
      <point x="1569" y="863" type="line" identifier="su2XmdS8e8"/>
      <point x="1457" y="863" type="line" identifier="JQaOzDQqlF"/>
      <point x="1457" y="1600" type="line" identifier="xg8x2Ki40p"/>
      <point x="93" y="1600" type="line" identifier="pE1XSRiy68"/>
      <point x="93" y="1091" type="line" identifier="5lNstGRcSF"/>
      <point x="299" y="1091" type="line" identifier="AcE5xKDZfE"/>
      <point x="299" y="1465" type="line" identifier="7ogBYufWpl"/>
      <point x="1251" y="1465" type="line" identifier="RHLvSX2Jv6"/>
      <point x="1251" y="863" type="line" identifier="iic1IBkDqp"/>
      <point x="405" y="863" type="line" identifier="lRLJEhXMlO"/>
      <point x="405" y="735" type="line" identifier="8aKgEELrVU"/>
      <point x="1363" y="735" type="line" identifier="Dm8zjmbhNr"/>
      <point x="1363" y="135" type="line" identifier="xv9CFHiFgB"/>
      <point x="276" y="135" type="line" identifier="YajKQV3MHP"/>
      <point x="276" y="471" type="line" identifier="36SchVkwze"/>
      <point x="70" y="471" type="line" identifier="tVui9PiOjA"/>
    </contour>
  </outline>
</glyph>
<glyph name="four" format="2">
  <advance width="1647"/>
  <unicode hex="0034"/>
  <outline>
    <contour>
      <point x="1225" y="0" type="line"/>
      <point x="1432" y="0" type="line"/>
      <point x="1432" y="726" type="line"/>
      <point x="1576" y="726" type="line"/>
      <point x="1576" y="866" type="line"/>
      <point x="1432" y="866" type="line"/>
      <point x="1432" y="1600" type="line"/>
      <point x="1225" y="1600" type="line"/>
      <point x="1225" y="866" type="line"/>
      <point x="277" y="866" type="line"/>
      <point x="277" y="981" type="line"/>
      <point x="277" y="1606" type="line"/>
      <point x="71" y="1606" type="line"/>
      <point x="71" y="980" type="line"/>
      <point x="71" y="726" type="line"/>
      <point x="1225" y="726" type="line"/>
    </contour>
  </outline>
</glyph>
<glyph name="seven" format="2">
  <advance width="1733"/>
  <unicode hex="0037"/>
  <outline>
    <contour>
      <point x="730" y="0" type="line"/>
      <point x="947" y="0" type="line" identifier="PiPrv7Kcoy"/>
      <point x="1607" y="1307" type="line" identifier="PkvwNC9Tx1"/>
      <point x="1607" y="1600" type="line" identifier="tgqM27bPOm"/>
      <point x="126" y="1600" type="line" identifier="36ml4xRICt"/>
      <point x="126" y="1052" type="line" identifier="aaDZsh5Mah"/>
      <point x="332" y="1052" type="line"/>
      <point x="332" y="1460" type="line"/>
      <point x="1369" y="1460" type="line"/>
      <point x="1369" y="1321" type="line"/>
    </contour>
  </outline>
</glyph>
<glyph name="eight" format="2">
  <advance width="1693"/>
  <unicode hex="0038"/>
  <outline>
    <contour>
      <point x="1267" y="733" type="line"/>
      <point x="1407" y="626" type="line"/>
      <point x="1407" y="135" type="line"/>
      <point x="286" y="135" type="line"/>
      <point x="286" y="624" type="line"/>
      <point x="426" y="733" type="line"/>
    </contour>
    <contour>
      <point x="1464" y="799" type="line"/>
      <point x="1464" y="801" type="line"/>
      <point x="1610" y="924" type="line"/>
      <point x="1610" y="1600" type="line"/>
      <point x="83" y="1600" type="line"/>
      <point x="83" y="924" type="line"/>
      <point x="229" y="801" type="line"/>
      <point x="229" y="799" type="line"/>
      <point x="80" y="671" type="line"/>
      <point x="80" y="0" type="line"/>
      <point x="1613" y="0" type="line"/>
      <point x="1613" y="671" type="line"/>
    </contour>
    <contour>
      <point x="426" y="867" type="line"/>
      <point x="289" y="970" type="line"/>
      <point x="289" y="1465" type="line"/>
      <point x="1404" y="1465" type="line"/>
      <point x="1403" y="970" type="line"/>
      <point x="1267" y="867" type="line"/>
    </contour>
  </outline>
</glyph>
<glyph name="nine" format="2">
  <advance width="1729"/>
  <unicode hex="0039"/>
  <outline>
    <contour>
      <point x="1614" y="1600" type="line" identifier="uiw6aBUf4P"/>
      <point x="115" y="1600" type="line" identifier="jtYkxiUX6G"/>
      <point x="115" y="742" type="line" identifier="2G5L37c87I"/>
      <point x="1408" y="742" type="line"/>
      <point x="1408" y="136" type="line"/>
      <point x="322" y="136" type="line"/>
      <point x="322" y="378" type="line"/>
      <point x="116" y="378" type="line" identifier="Wuidbv6mUe"/>
      <point x="116" y="0" type="line" identifier="oGvEEuxnYv"/>
      <point x="1614" y="0" type="line" identifier="xR3pEHbMJx"/>
    </contour>
    <contour>
      <point x="322" y="874" type="line"/>
      <point x="322" y="1465" type="line"/>
      <point x="1408" y="1465" type="line"/>
      <point x="1408" y="874" type="line"/>
    </contour>
  </outline>
</glyph>
<glyph name="B" format="2">
  <advance width="1774"/>
  <unicode hex="0042"/>
  <outline>
    <contour>
      <point x="160" y="0" type="line" identifier="hvY9r8RmLr"/>
      <point x="1474" y="0" type="line" identifier="9QFpw7nfq7"/>
      <point x="1659" y="322" type="line"/>
      <point x="1659" y="866" type="line" identifier="543PerILpr"/>
      <point x="1514" y="866" type="line" identifier="zhomauHW30"/>
      <point x="1514" y="1600" type="line" identifier="FaP204GrdB"/>
      <point x="160" y="1600" type="line" identifier="JEev70GAj6"/>
    </contour>
    <contour>
      <point x="366" y="136" type="line" identifier="jaMSiLrCua"/>
      <point x="366" y="733" type="line" identifier="XSrxNd2axx"/>
      <point x="1453" y="733" type="line" identifier="lsRGatjQja"/>
      <point x="1453" y="348" type="line"/>
      <point x="1317" y="136" type="line" identifier="xhlDJ3CjD5"/>
    </contour>
    <contour>
      <point x="366" y="866" type="line" identifier="By7dfMihfe"/>
      <point x="366" y="1464" type="line" identifier="1p5hKrurVy"/>
      <point x="1317" y="1464" type="line" identifier="Qby8aMtF2X"/>
      <point x="1317" y="866" type="line" identifier="xpxyvIzPoc"/>
    </contour>
  </outline>
</glyph>
<glyph name="C" format="2">
  <advance width="1657"/>
  <unicode hex="0043"/>
  <outline>
    <contour>
      <point x="116" y="0" type="line" identifier="7lPhzTnk2Z"/>
      <point x="1541" y="0" type="line" identifier="qJVLZGnkwh"/>
      <point x="1541" y="434" type="line" identifier="nDnDHzAMXL"/>
      <point x="1335" y="434" type="line" identifier="QX1V08aTu0"/>
      <point x="1335" y="140" type="line" identifier="Y750RHTvDj"/>
      <point x="322" y="140" type="line" identifier="L2LsGnXiZ2"/>
      <point x="322" y="1235" type="line" identifier="sUWsr03vF4"/>
      <point x="455" y="1460" type="line" identifier="dbOUe6OhxL"/>
      <point x="1334" y="1460" type="line" identifier="5BjRbcud80"/>
      <point x="1334" y="1034" type="line" identifier="fNVDqwQo2o"/>
      <point x="1540" y="1034" type="line" identifier="wLqQQx7QVN"/>
      <point x="1540" y="1600" type="line" identifier="9eJelv8BOw"/>
      <point x="301" y="1600" type="line" identifier="lfZev3ICaC"/>
      <point x="116" y="1276" type="line" identifier="V1EWIdPahq"/>
    </contour>
  </outline>
</glyph>
<glyph name="E" format="2">
  <advance width="1636"/>
  <unicode hex="0045"/>
  <outline>
    <contour>
      <point x="160" y="0" type="line" identifier="fZynkQ4XHB"/>
      <point x="1476" y="0" type="line" identifier="FAQNpgUPxV"/>
      <point x="1476" y="516" type="line" identifier="gHI0YjrPxR"/>
      <point x="1283" y="516" type="line" identifier="gxCIuXb4el"/>
      <point x="1283" y="135" type="line" identifier="5cgTYOhATF"/>
      <point x="366" y="135" type="line" identifier="bWs42DaCgU"/>
      <point x="366" y="732" type="line" identifier="VtD2aADJmn"/>
      <point x="1235" y="732" type="line" identifier="PpbsFdHAnS"/>
      <point x="1235" y="867" type="line" identifier="8WuC5p8Ax5"/>
      <point x="366" y="867" type="line" identifier="m39IWn9ntA"/>
      <point x="366" y="1465" type="line" identifier="gQ21I4SHQg"/>
      <point x="1282" y="1465" type="line" identifier="eqNb2VTwYs"/>
      <point x="1282" y="1082" type="line" identifier="mLmcFoJA4m"/>
      <point x="1475" y="1082" type="line" identifier="e79n7CoPy1"/>
      <point x="1475" y="1600" type="line" identifier="qYRmo14Il5"/>
      <point x="160" y="1600" type="line" identifier="HmJIcnLWfC"/>
    </contour>
  </outline>
</glyph>
<glyph name="P" format="2">
  <advance width="1601"/>
  <unicode hex="0050"/>
  <outline>
    <contour>
      <point x="130" y="0" type="line" identifier="EG08jqU5fb"/>
      <point x="337" y="0" type="line" identifier="osRzIFK2Cu"/>
      <point x="337" y="630" type="line" identifier="hIFVovVRwe"/>
      <point x="1531" y="630" type="line" identifier="Tt6D8zYZmU"/>
      <point x="1531" y="1600" type="line" identifier="6xW04auDFu"/>
      <point x="130" y="1600" type="line" identifier="eETO5GBD5v"/>
    </contour>
    <contour>
      <point x="337" y="770" type="line" identifier="PIBVN1PGv1"/>
      <point x="337" y="1460" type="line" identifier="IZIZQr2gYJ"/>
      <point x="1325" y="1460" type="line" identifier="2c4LCF1E1R"/>
      <point x="1325" y="770" type="line" identifier="1WCnzth1GX"/>
    </contour>
  </outline>
</glyph>
<glyph name="S" format="2">
  <advance width="1576"/>
  <unicode hex="0053"/>
  <outline>
    <contour>
      <point x="72" y="0" type="line" identifier="09VlJ0BjUX"/>
      <point x="1321" y="0" type="line" identifier="EagWihqFM8"/>
      <point x="1506" y="315" type="line"/>
      <point x="1506" y="875" type="line" identifier="KfNuQA7eZe"/>
      <point x="276" y="875" type="line" identifier="At364YZFEy"/>
      <point x="276" y="1246" type="line"/>
      <point x="411" y="1468" type="line"/>
      <point x="1295" y="1468" type="line" identifier="3ZUkG35meB"/>
      <point x="1295" y="1120" type="line" identifier="DTOJhFIl15"/>
      <point x="1502" y="1120" type="line" identifier="9KDcrfQ5Ui"/>
      <point x="1502" y="1600" type="line" identifier="SaF9ojRFrW"/>
      <point x="257" y="1600" type="line"/>
      <point x="71" y="1273" type="line"/>
      <point x="71" y="738" type="line" identifier="3sQ8t8BZ6b"/>
      <point x="1299" y="738" type="line" identifier="yiV6OCBLHg"/>
      <point x="1299" y="342" type="line"/>
      <point x="1163" y="133" type="line" identifier="9kdl9SYsn8"/>
      <point x="278" y="133" type="line" identifier="yZDWuX8LLe"/>
      <point x="278" y="447" type="line" identifier="jYb9001DTm"/>
      <point x="72" y="447" type="line" identifier="ho4DrS0rdW"/>
    </contour>
  </outline>
</glyph>
<glyph name="X" format="2">
  <advance width="1723"/>
  <unicode hex="0058"/>
  <outline>
    <contour>
      <point x="1262" y="727" type="line"/>
      <point x="1402" y="616" type="line"/>
      <point x="1402" y="0" type="line"/>
      <point x="1608" y="0" type="line"/>
      <point x="1608" y="664" type="line"/>
      <point x="1452" y="796" type="line"/>
      <point x="1452" y="797" type="line"/>
      <point x="1604" y="797" type="line"/>
      <point x="1604" y="1600" type="line"/>
      <point x="1398" y="1600" type="line"/>
      <point x="1398" y="867" type="line"/>
      <point x="1273" y="867" type="line"/>
      <point x="448" y="867" type="line"/>
      <point x="325" y="963" type="line"/>
      <point x="325" y="1600" type="line"/>
      <point x="118" y="1600" type="line"/>
      <point x="118" y="920" type="line"/>
      <point x="271" y="798" type="line"/>
      <point x="271" y="797" type="line"/>
      <point x="115" y="797" type="line"/>
      <point x="115" y="0" type="line"/>
      <point x="321" y="0" type="line"/>
      <point x="321" y="728" type="line"/>
      <point x="459" y="727" type="line"/>
    </contour>
  </outline>
</glyph>
<glyph name="Z" format="2">
  <advance width="1582"/>
  <unicode hex="005A"/>
  <outline>
    <contour>
      <point x="70" y="0" type="line"/>
      <point x="1511" y="0" type="line" identifier="pzdvPTirLJ"/>
      <point x="1511" y="427" type="line" identifier="91SxUS0iwG"/>
      <point x="1305" y="427" type="line"/>
      <point x="1305" y="135" type="line"/>
      <point x="276" y="135" type="line"/>
      <point x="276" y="354" type="line"/>
      <point x="1506" y="1353" type="line" identifier="yyb1NCCI5w"/>
      <point x="1506" y="1600" type="line" identifier="5FogYRSgkk"/>
      <point x="78" y="1600" type="line" identifier="svlFvrau4c"/>
      <point x="78" y="1202" type="line" identifier="LQ9fBsTy9K"/>
      <point x="275" y="1202" type="line"/>
      <point x="275" y="1465" type="line"/>
      <point x="1300" y="1465" type="line"/>
      <point x="1300" y="1392" type="line"/>
      <point x="70" y="404" type="line" identifier="teVKnpBcVb"/>
    </contour>
  </outline>
</glyph>
<glyph name="C.wide" format="2">
  <advance width="1638"/>
  <outline>
    <contour>
      <point x="120" y="0" type="line" identifier="7lPhzTnk2Z"/>
      <point x="1512" y="0" type="line" identifier="qJVLZGnkwh"/>
      <point x="1512" y="140" type="line" identifier="Y750RHTvDj"/>
      <point x="326" y="140" type="line" identifier="L2LsGnXiZ2"/>
      <point x="326" y="1153" type="line" identifier="sUWsr03vF4"/>
      <point x="465" y="1460" type="line" identifier="dbOUe6OhxL"/>
      <point x="1511" y="1460" type="line" identifier="5BjRbcud80"/>
      <point x="1511" y="1600" type="line" identifier="9eJelv8BOw"/>
      <point x="310" y="1600" type="line" identifier="lfZev3ICaC"/>
      <point x="120" y="1183" type="line" identifier="V1EWIdPahq"/>
    </contour>
  </outline>
</glyph>
<glyph name="E.wide" format="2">
  <advance width="1633"/>
  <outline>
    <contour>
      <point x="168" y="0" type="line" identifier="fZynkQ4XHB"/>
      <point x="1466" y="0" type="line" identifier="FAQNpgUPxV"/>
      <point x="1466" y="133" type="line" identifier="5cgTYOhATF"/>
      <point x="374" y="133" type="line" identifier="bWs42DaCgU"/>
      <point x="374" y="737" type="line" identifier="VtD2aADJmn"/>
      <point x="1341" y="737" type="line" identifier="PpbsFdHAnS"/>
      <point x="1341" y="863" type="line" identifier="8WuC5p8Ax5"/>
      <point x="374" y="863" type="line" identifier="m39IWn9ntA"/>
      <point x="374" y="1469" type="line" identifier="gQ21I4SHQg"/>
      <point x="1462" y="1469" type="line" identifier="eqNb2VTwYs"/>
      <point x="1462" y="1600" type="line" identifier="qYRmo14Il5"/>
      <point x="168" y="1600" type="line" identifier="HmJIcnLWfC"/>
    </contour>
  </outline>
</glyph>
<glyph name="F.wide" format="2">
  <advance width="1577"/>
  <outline>
    <contour>
      <point x="129" y="0" type="line" identifier="oAgH2tA6DJ"/>
      <point x="335" y="0" type="line" identifier="zCZyMcW5ho"/>
      <point x="335" y="672" type="line" identifier="yHYqkMd7LI"/>
      <point x="1408" y="672" type="line" identifier="NmB7yyQuio"/>
      <point x="1408" y="812" type="line" identifier="wQk2C8zPHh"/>
      <point x="335" y="812" type="line" identifier="4cFHKQfHDt"/>
      <point x="335" y="1460" type="line" identifier="ZvzwyrcwpS"/>
      <point x="1508" y="1460" type="line" identifier="4E754ovOIe"/>
      <point x="1508" y="1600" type="line" identifier="NUrIjqOB7J"/>
      <point x="129" y="1600" type="line" identifier="TBAYuCfUFX"/>
    </contour>
  </outline>
</glyph>
<glyph name="G.wide" format="2">
  <advance width="1687"/>
  <outline>
    <contour>
      <point x="116" y="0" type="line" identifier="7lPhzTnk2Z"/>
      <point x="1599" y="0" type="line" identifier="qJVLZGnkwh"/>
      <point x="1599" y="847" type="line" identifier="uek1NNj7De"/>
      <point x="1011" y="847" type="line" identifier="qcvimxjndX"/>
      <point x="1011" y="729" type="line" identifier="EARaY3Su65"/>
      <point x="1394" y="729" type="line" identifier="4m6dHLVhZq"/>
      <point x="1394" y="136" type="line" identifier="Y750RHTvDj"/>
      <point x="322" y="136" type="line" identifier="L2LsGnXiZ2"/>
      <point x="322" y="1165" type="line" identifier="sUWsr03vF4"/>
      <point x="459" y="1464" type="line" identifier="dbOUe6OhxL"/>
      <point x="1597" y="1464" type="line" identifier="5BjRbcud80"/>
      <point x="1597" y="1600" type="line" identifier="9eJelv8BOw"/>
      <point x="299" y="1600" type="line" identifier="lfZev3ICaC"/>
      <point x="116" y="1191" type="line" identifier="V1EWIdPahq"/>
    </contour>
  </outline>
</glyph>
<glyph name="L.wide" format="2">
  <advance width="1554"/>
  <outline>
    <contour>
      <point x="171" y="0" type="line" identifier="XkJNfQlnnt"/>
      <point x="1429" y="0" type="line" identifier="82EXZEgt46"/>
      <point x="1429" y="140" type="line" identifier="cqpSxwFiM3"/>
      <point x="377" y="140" type="line" identifier="MbxRZRd8vz"/>
      <point x="377" y="1600" type="line" identifier="lYiaKSKITt"/>
      <point x="171" y="1600" type="line" identifier="XFf4mMUzYo"/>
    </contour>
  </outline>
</glyph>
<glyph name="M.narrow" format="2">
  <advance width="2282"/>
  <outline>
    <contour>
      <point x="1914" y="0" type="line" smooth="yes" identifier="12Pyby1xY2"/>
      <point x="2121" y="0" type="line" smooth="yes" identifier="5LJg4ajoG6"/>
      <point x="2121" y="1600" type="line" smooth="yes" identifier="ZqTZqAY3uY"/>
      <point x="305" y="1600" type="line" smooth="yes" identifier="R4lklfJsHA"/>
      <point x="117" y="1280" type="line" smooth="yes" identifier="7g7f8Wu7K4"/>
      <point x="117" y="0" type="line" smooth="yes" identifier="RTOJW56qXy"/>
      <point x="323" y="0" type="line" identifier="JfSFAkWGZC"/>
      <point x="323" y="1225" type="line" smooth="yes" identifier="WWvGwSpq0g"/>
      <point x="470" y="1460" type="line" smooth="yes" identifier="oee4nqI8Wl"/>
      <point x="1017" y="1460" type="line" identifier="Ljn2lpvpG8"/>
      <point x="1017" y="11" type="line" smooth="yes"/>
      <point x="1223" y="11" type="line"/>
      <point x="1223" y="1460" type="line" identifier="GlWB6PG54Z"/>
      <point x="1914" y="1460" type="line" identifier="iqeTRv7HXg"/>
    </contour>
  </outline>
</glyph>
<glyph name="N.wide" format="2">
  <advance width="1759"/>
  <outline>
    <contour>
      <point x="142" y="0" type="line" identifier="CkwYPPvJLv"/>
      <point x="348" y="0" type="line" identifier="oHTJsN7drZ"/>
      <point x="348" y="1433" type="line" identifier="wfBbYd10Pm"/>
      <point x="462" y="1433" type="line" identifier="MEnBDHq6zU"/>
      <point x="1357" y="0" type="line" identifier="3Nbopwznvn"/>
      <point x="1709" y="0" type="line" identifier="uKfuudIUvA"/>
      <point x="1709" y="1600" type="line" identifier="XRdLFXiM4t"/>
      <point x="1503" y="1600" type="line" identifier="MUSJPjCIXg"/>
      <point x="1503" y="173" type="line" identifier="VILP20cFmq"/>
      <point x="1389" y="173" type="line" identifier="z5b04GDwRN"/>
      <point x="498" y="1600" type="line" identifier="LL64NQ6WBE"/>
      <point x="142" y="1600" type="line" identifier="dzUaaP1sjt"/>
    </contour>
  </outline>
</glyph>
<glyph name="R.wide" format="2">
  <advance width="1667"/>
  <outline>
    <contour>
      <point x="1299" y="0" type="line"/>
      <point x="1505" y="0" type="line"/>
      <point x="1305" y="676" type="line"/>
      <point x="1114" y="676" type="line"/>
    </contour>
    <contour>
      <point x="130" y="0" type="line" identifier="EG08jqU5fb"/>
      <point x="336" y="0" type="line" identifier="osRzIFK2Cu"/>
      <point x="336" y="668" type="line" identifier="hIFVovVRwe"/>
      <point x="1530" y="668" type="line" identifier="Tt6D8zYZmU"/>
      <point x="1530" y="1600" type="line" identifier="6xW04auDFu"/>
      <point x="130" y="1600" type="line" identifier="eETO5GBD5v"/>
    </contour>
    <contour>
      <point x="336" y="808" type="line" identifier="PIBVN1PGv1"/>
      <point x="336" y="1460" type="line" identifier="IZIZQr2gYJ"/>
      <point x="1324" y="1460" type="line" identifier="2c4LCF1E1R"/>
      <point x="1324" y="808" type="line" identifier="1WCnzth1GX"/>
    </contour>
  </outline>
</glyph>
<glyph name="S.wide" format="2">
  <advance width="1685"/>
  <outline>
    <contour>
      <point x="128" y="0" type="line" identifier="09VlJ0BjUX"/>
      <point x="1374" y="0" type="line" identifier="EagWihqFM8"/>
      <point x="1558" y="315" type="line"/>
      <point x="1558" y="870" type="line" identifier="KfNuQA7eZe"/>
      <point x="332" y="870" type="line" identifier="At364YZFEy"/>
      <point x="332" y="1246" type="line"/>
      <point x="468" y="1468" type="line"/>
      <point x="1555" y="1468" type="line" identifier="3ZUkG35meB"/>
      <point x="1555" y="1600" type="line" identifier="SaF9ojRFrW"/>
      <point x="313" y="1600" type="line"/>
      <point x="127" y="1273" type="line"/>
      <point x="127" y="733" type="line" identifier="3sQ8t8BZ6b"/>
      <point x="1352" y="733" type="line" identifier="yiV6OCBLHg"/>
      <point x="1352" y="342" type="line"/>
      <point x="1216" y="133" type="line" identifier="9kdl9SYsn8"/>
      <point x="128" y="133" type="line" identifier="yZDWuX8LLe"/>
    </contour>
  </outline>
</glyph>
<glyph name="U.alt" format="2">
  <advance width="1665"/>
  <outline>
    <contour>
      <point x="1348" y="1600" type="line" smooth="yes"/>
      <point x="1348" y="140" type="line"/>
      <point x="308" y="140" type="line" smooth="yes"/>
      <point x="308" y="1600" type="line"/>
      <point x="102" y="1600" type="line" smooth="yes"/>
      <point x="102" y="0" type="line" smooth="yes"/>
      <point x="1554" y="0" type="line" smooth="yes"/>
      <point x="1554" y="1600" type="line" smooth="yes"/>
    </contour>
  </outline>
</glyph>
<glyph name="Y.wide" format="2">
  <advance width="1667"/>
  <outline>
    <contour>
      <point x="104" y="0" type="line"/>
      <point x="1572" y="0" type="line" identifier="oOtn61SmRY"/>
      <point x="1572" y="1600" type="line" identifier="8OglXgblhr"/>
      <point x="1366" y="1600" type="line" identifier="db0bPhBdaU"/>
      <point x="1366" y="878" type="line" identifier="MTAeavIVWY"/>
      <point x="307" y="878" type="line" identifier="lggLiivmLt"/>
      <point x="307" y="1600" type="line" identifier="UPaHY3UudR"/>
      <point x="101" y="1600" type="line" identifier="ZnCDQVdtyD"/>
      <point x="101" y="742" type="line" identifier="uqAJBjDIOT"/>
      <point x="1366" y="742" type="line" identifier="7JgTtdb0jg"/>
      <point x="1366" y="136" type="line"/>
      <point x="104" y="136" type="line"/>
    </contour>
  </outline>
</glyph>
<glyph name="Z.wide" format="2">
  <advance width="1673"/>
  <outline>
    <contour>
      <point x="117" y="0" type="line"/>
      <point x="1556" y="0" type="line" identifier="pzdvPTirLJ"/>
      <point x="1556" y="135" type="line"/>
      <point x="337" y="135" type="line"/>
      <point x="337" y="366" type="line"/>
      <point x="1549" y="1310" type="line" identifier="yyb1NCCI5w"/>
      <point x="1549" y="1600" type="line" identifier="5FogYRSgkk"/>
      <point x="121" y="1600" type="line" identifier="svlFvrau4c"/>
      <point x="121" y="1465" type="line"/>
      <point x="1315" y="1465" type="line"/>
      <point x="1315" y="1359" type="line"/>
      <point x="117" y="422" type="line" identifier="teVKnpBcVb"/>
    </contour>
  </outline>
</glyph>
<glyph name="five.wide" format="2">
  <advance width="1702"/>
  <outline>
    <contour>
      <point x="117" y="0" type="line" identifier="09VlJ0BjUX"/>
      <point x="1587" y="0" type="line" identifier="EagWihqFM8"/>
      <point x="1587" y="866" type="line" identifier="KfNuQA7eZe"/>
      <point x="321" y="866" type="line" identifier="At364YZFEy"/>
      <point x="321" y="1464" type="line" identifier="BcuLfvaQKC"/>
      <point x="1587" y="1464" type="line" identifier="3ZUkG35meB"/>
      <point x="1587" y="1600" type="line" identifier="SaF9ojRFrW"/>
      <point x="115" y="1600" type="line" identifier="F4sQEYelA8"/>
      <point x="115" y="733" type="line" identifier="3sQ8t8BZ6b"/>
      <point x="1381" y="733" type="line" identifier="yiV6OCBLHg"/>
      <point x="1381" y="136" type="line" identifier="9kdl9SYsn8"/>
      <point x="117" y="136" type="line" identifier="yZDWuX8LLe"/>
    </contour>
  </outline>
</glyph>
<glyph name="nine.wide" format="2">
  <advance width="1685"/>
  <outline>
    <contour>
      <point x="132" y="0" type="line" identifier="oGvEEuxnYv"/>
      <point x="1611" y="0" type="line" identifier="xR3pEHbMJx"/>
      <point x="1611" y="1600" type="line" identifier="uiw6aBUf4P"/>
      <point x="131" y="1600" type="line" identifier="jtYkxiUX6G"/>
      <point x="131" y="734" type="line" identifier="2G5L37c87I"/>
      <point x="1404" y="734" type="line"/>
      <point x="1404" y="136" type="line"/>
      <point x="132" y="136" type="line"/>
    </contour>
    <contour>
      <point x="338" y="866" type="line"/>
      <point x="338" y="1464" type="line"/>
      <point x="1404" y="1464" type="line"/>
      <point x="1404" y="866" type="line"/>
    </contour>
  </outline>
</glyph>
<glyph name="one.narrow" format="2">
  <advance width="1015"/>
  <outline>
    <contour>
      <point x="884" y="0" type="line" identifier="5nmxQXofSG"/>
      <point x="884" y="1600" type="line" identifier="4rjIeWbSbx"/>
      <point x="71" y="1600" type="line"/>
      <point x="71" y="1460" type="line"/>
      <point x="678" y="1460" type="line"/>
      <point x="678" y="0" type="line"/>
    </contour>
  </outline>
</glyph>
<glyph name="six.wide" format="2">
  <advance width="1673"/>
  <outline>
    <contour>
      <point x="115" y="0" type="line" identifier="uiw6aBUf4P"/>
      <point x="1604" y="0" type="line" identifier="jtYkxiUX6G"/>
      <point x="1604" y="850" type="line" identifier="2G5L37c87I"/>
      <point x="322" y="850" type="line"/>
      <point x="322" y="1275" type="line"/>
      <point x="455" y="1464" type="line"/>
      <point x="1604" y="1464" type="line"/>
      <point x="1604" y="1600" type="line" identifier="oGvEEuxnYv"/>
      <point x="290" y="1600" type="line" identifier="xR3pEHbMJx"/>
      <point x="115" y="1303" type="line" identifier="KnMArb0tv8"/>
    </contour>
    <contour>
      <point x="1398" y="731" type="line"/>
      <point x="1398" y="136" type="line"/>
      <point x="322" y="136" type="line"/>
      <point x="322" y="731" type="line"/>
    </contour>
  </outline>
</glyph>
<glyph name="three.wide" format="2">
  <advance width="1717"/>
  <outline>
    <contour>
      <point x="77" y="0" type="line" identifier="O9abUc1nmN"/>
      <point x="1586" y="0" type="line" identifier="kMJYMTfXCq"/>
      <point x="1586" y="865" type="line" identifier="su2XmdS8e8"/>
      <point x="1450" y="865" type="line" identifier="JQaOzDQqlF"/>
      <point x="1450" y="1600" type="line" identifier="xg8x2Ki40p"/>
      <point x="87" y="1600" type="line" identifier="pE1XSRiy68"/>
      <point x="87" y="1464" type="line" identifier="7ogBYufWpl"/>
      <point x="1244" y="1464" type="line" identifier="RHLvSX2Jv6"/>
      <point x="1244" y="867" type="line" identifier="iic1IBkDqp"/>
      <point x="276" y="867" type="line" identifier="lRLJEhXMlO"/>
      <point x="276" y="734" type="line" identifier="8aKgEELrVU"/>
      <point x="1380" y="734" type="line" identifier="Dm8zjmbhNr"/>
      <point x="1380" y="136" type="line" identifier="xv9CFHiFgB"/>
      <point x="77" y="136" type="line" identifier="YajKQV3MHP"/>
    </contour>
  </outline>
</glyph>
<glyph name="two.wide" format="2">
  <advance width="1661"/>
  <outline>
    <contour>
      <point x="141" y="0" type="line"/>
      <point x="1566" y="0" type="line" identifier="pzdvPTirLJ"/>
      <point x="1566" y="136" type="line"/>
      <point x="347" y="136" type="line"/>
      <point x="347" y="731" type="line"/>
      <point x="1562" y="731" type="line" identifier="yyb1NCCI5w"/>
      <point x="1562" y="1600" type="line" identifier="5FogYRSgkk"/>
      <point x="144" y="1600" type="line" identifier="svlFvrau4c"/>
      <point x="144" y="1464" type="line"/>
      <point x="1356" y="1464" type="line"/>
      <point x="1356" y="863" type="line"/>
      <point x="141" y="863" type="line" identifier="teVKnpBcVb"/>
    </contour>
  </outline>
</glyph>
